<svg id="Capa_1" data-name="Capa 1" xmlns="http://www.w3.org/2000/svg" viewBox="0 0 157.58 59.28"><defs><style>.cls-1{fill:#ffc800;}.cls-2{fill:none;}.cls-3{fill:#4a5157;}.cls-4{fill:#fff;}</style></defs><path class="cls-1" d="M157.08,59.28c-.2-4.94-.3-9.88-.38-14.82s-.07-9.88-.12-14.82,0-9.88.12-14.82l.14-7.41c.08-2.47.13-4.94.24-7.41.12,2.47.17,4.94.25,7.41l.14,7.41c.08,4.94.07,9.88.11,14.82s0,9.88-.11,14.82S157.29,54.34,157.08,59.28Z"/><path class="cls-2" d="M85.49,24V6.8a63.95,63.95,0,0,0-16.42.08L79.5,23.36A51.27,51.27,0,0,1,85.49,24Z"/><path class="cls-2" d="M42.64,29.49a16.38,16.38,0,0,1-6.8,5.77l3.54,6.38A49.32,49.32,0,0,1,54.52,29.07V10.48a66,66,0,0,0-10.08,4.79,19.73,19.73,0,0,1,.67,5.18A16,16,0,0,1,42.64,29.49Z"/><path class="cls-2" d="M85.49,32.83V28c-1.1-.2-2.21-.37-3.34-.48Z"/><path class="cls-2" d="M98.93,28.19A49.28,49.28,0,0,1,114.44,40h4.3a3.16,3.16,0,0,1,1.48.3,4.92,4.92,0,0,1,1.25,1.07,7.66,7.66,0,0,0,3.08,3,11.28,11.28,0,0,0,5.58,1.18,13,13,0,0,0,6.3-1.25,7.75,7.75,0,0,0,.7-.47,67.2,67.2,0,0,0-4.41-7.76q-2.34-.68-6.08-1.45-9.19-1.83-13.74-5.54t-4.56-10.63a14.61,14.61,0,0,1,.6-4.23,65.68,65.68,0,0,0-10-4.38Z"/><path class="cls-2" d="M30.36,20.65c0-.1,0-.18,0-.27a6.31,6.31,0,0,0-1.71-4.63,6.63,6.63,0,0,0-5-1.75H15.27V26.53H23.7c.36,0,.68,0,1-.07A68.73,68.73,0,0,1,30.36,20.65Z"/><path class="cls-2" d="M15.27,37.69v2.74c.48-.93,1-1.84,1.49-2.74Z"/><path class="cls-2" d="M77.58,43.31l.78,0-9.9-15.09-.43.1V44.93A28.8,28.8,0,0,1,77.58,43.31Z"/><path class="cls-3" d="M34.84,56.71l.27-.68a45.48,45.48,0,0,1,6-10.87l.46-.62,5,9a2.33,2.33,0,0,1,.29,1.07,2.1,2.1,0,0,1-.59,1.45,2,2,0,0,1-1.5.65Z"/><path class="cls-4" d="M41.49,45.46l4.6,8.32a1.9,1.9,0,0,1,.23.83,1.58,1.58,0,0,1-.46,1.11,1.5,1.5,0,0,1-1.13.49H35.57a45.16,45.16,0,0,1,5.92-10.75m.13-1.84-.93,1.25a45.89,45.89,0,0,0-6,11l-.52,1.36H44.73a2.46,2.46,0,0,0,1.87-.82,2.57,2.57,0,0,0,.72-1.78A2.9,2.9,0,0,0,47,53.33L42.37,45l-.75-1.36Z"/><path class="cls-3" d="M31.27,55.6a4.19,4.19,0,0,1-.82-1.24l-8.2-16.17H20.53l.47-.77A67.16,67.16,0,0,1,44.18,14.84l.57-.33.17.63a20.44,20.44,0,0,1,.69,5.31,16.54,16.54,0,0,1-2.55,9.31,16.76,16.76,0,0,1-6.52,5.71L40,41.7l-.21.26A48.46,48.46,0,0,0,32.1,55.43l-.27.75Z"/><path class="cls-4" d="M44.44,15.27a19.73,19.73,0,0,1,.67,5.18,16,16,0,0,1-2.47,9,16.38,16.38,0,0,1-6.8,5.77l3.54,6.38a48.89,48.89,0,0,0-7.74,13.62,3.84,3.84,0,0,1-.73-1.1L22.56,37.69H21.43a66.38,66.38,0,0,1,23-22.42m.62-1.52-1.13.66A67.53,67.53,0,0,0,20.58,37.16l-.95,1.53H22L30,54.59a5,5,0,0,0,.9,1.36L32,57.11l.55-1.5a47.9,47.9,0,0,1,7.59-13.34l.42-.52-.33-.59-3-5.48A17.12,17.12,0,0,0,43.47,30a17,17,0,0,0,2.64-9.59A20.53,20.53,0,0,0,45.4,15l-.34-1.26Z"/><path class="cls-3" d="M2.9,56.71A2.29,2.29,0,0,1,1.22,56,2.29,2.29,0,0,1,.5,54.31V5A2.43,2.43,0,0,1,1.17,3.3,2.24,2.24,0,0,1,2.9,2.57H23.77c6.77,0,12.15,1.57,16,4.66a15.24,15.24,0,0,1,3.54,4l.27.44-.45.25A70.18,70.18,0,0,0,30.69,21l-.87.8,0-1.19a.81.81,0,0,1,0-.16,5.79,5.79,0,0,0-1.56-4.37,6.19,6.19,0,0,0-4.61-1.6H15.77V26H23.7c.28,0,.54,0,.8-.05l1.41-.13-.82.94a69.35,69.35,0,0,0-7.9,11.14l-.14.26H15.77v2.36l0,.11A68.81,68.81,0,0,0,10,56.32l-.09.39Z"/><path class="cls-4" d="M23.77,3.07q10,0,15.68,4.55a14.73,14.73,0,0,1,3.42,3.91,69.82,69.82,0,0,0-12.51,9.12c0-.1,0-.18,0-.27a6.31,6.31,0,0,0-1.71-4.63,6.63,6.63,0,0,0-5-1.75H15.27V26.53H23.7c.36,0,.68,0,1-.07a69.3,69.3,0,0,0-8,11.23H15.27v2.74a69,69,0,0,0-5.8,15.78H2.9a1.82,1.82,0,0,1-1.33-.57A1.82,1.82,0,0,1,1,54.31V5a2,2,0,0,1,.53-1.4A1.8,1.8,0,0,1,2.9,3.07H23.77m0-1H2.9A2.8,2.8,0,0,0,.8,3,3,3,0,0,0,0,5V54.31a2.86,2.86,0,0,0,.86,2,2.86,2.86,0,0,0,2,.86h7.36l.18-.77a68.47,68.47,0,0,1,5.72-15.55l.11-.22v-2h1.07l.28-.51a69.56,69.56,0,0,1,7.85-11.07l1.63-1.87-2.47.22-.18,0c-.26,0-.5.05-.75.05H16.27V15H23.7A5.65,5.65,0,0,1,28,16.45a5.34,5.34,0,0,1,1.42,3.93c0,.1,0,.17,0,.24L29.29,23,31,21.38a69.23,69.23,0,0,1,12.34-9l.89-.51L43.73,11a15.91,15.91,0,0,0-3.65-4.18c-3.94-3.16-9.42-4.77-16.31-4.77Z"/><path class="cls-3" d="M98.56,53a28.27,28.27,0,0,0-20.21-9.19h-.26L67.64,27.9l.72-.15a45.93,45.93,0,0,1,9.22-.94c1.54,0,3.09.08,4.62.23l.24,0,2.55,4V27.42l.59.11a45.18,45.18,0,0,1,13.59,4.73l.26.15V54Z"/><path class="cls-4" d="M77.58,27.31c1.54,0,3.07.08,4.57.23l3.34,5.29V28A44.78,44.78,0,0,1,98.93,32.7v20a28.9,28.9,0,0,0-20.57-9.35l-9.9-15.09a45,45,0,0,1,9.12-.93m0-1a46.2,46.2,0,0,0-9.32,1l-1.44.3.8,1.23,9.91,15.09.29.44h.52a27.75,27.75,0,0,1,19.85,9l1.74,1.89V32.11l-.52-.28A45.64,45.64,0,0,0,85.67,27l-1.18-.21v2.55L83,27l-.26-.42-.48-.05c-1.55-.15-3.12-.23-4.67-.23Z"/><path class="cls-3" d="M54.07,54.79a2.61,2.61,0,0,1,0-.48V33.41l.24-.15a45.26,45.26,0,0,1,13.67-5.41l.6-.13V45.28l-.33.12A28.48,28.48,0,0,0,55,55l-.66.87Z"/><path class="cls-4" d="M68,28.34V44.93a29,29,0,0,0-13.47,9.76,1.58,1.58,0,0,1,0-.38V33.69A44.69,44.69,0,0,1,68,28.34m1-1.24-1.21.26A45.57,45.57,0,0,0,54,32.83l-.49.29V54.31a2.86,2.86,0,0,0,.06.58L54,57l1.33-1.73a27.92,27.92,0,0,1,13-9.43l.67-.23V27.1Z"/><path class="cls-3" d="M98.71,28.64a48.16,48.16,0,0,0-13.3-4.19L85,24.38V6.24l.56.06A66.65,66.65,0,0,1,99.09,9.4l.34.12V29Z"/><path class="cls-4" d="M85.49,6.8A65.82,65.82,0,0,1,98.93,9.87V28.19A48.91,48.91,0,0,0,85.49,24V6.8m-1-1.13V24.8l.84.14a47.6,47.6,0,0,1,13.16,4.15l1.44.7V9.16l-.68-.23A65.65,65.65,0,0,0,85.61,5.81l-1.12-.14Z"/><path class="cls-3" d="M98.78,6.11a70.75,70.75,0,0,0-11-2.55l.07-1H97a2.24,2.24,0,0,1,1.73.73A2.43,2.43,0,0,1,99.43,5V6.32Z"/><path class="cls-4" d="M97,3.07a1.8,1.8,0,0,1,1.37.57A2,2,0,0,1,98.93,5v.6A68.93,68.93,0,0,0,87.87,3.07H97m0-1H87.87l-.15,2a68.11,68.11,0,0,1,10.9,2.53L99.93,7V5A3,3,0,0,0,99.13,3,2.8,2.8,0,0,0,97,2.07Z"/><path class="cls-3" d="M54,5a2.43,2.43,0,0,1,.67-1.74,2.24,2.24,0,0,1,1.73-.73H65a3.75,3.75,0,0,1,1.25.22l1.84.65-1.92.32A69.15,69.15,0,0,0,54.68,6.69L54,6.92Z"/><path class="cls-4" d="M65,3.07a3.15,3.15,0,0,1,1.09.2A68.6,68.6,0,0,0,54.52,6.22V5a2,2,0,0,1,.53-1.4,1.78,1.78,0,0,1,1.37-.57H65m0-1H56.42a2.78,2.78,0,0,0-2.1.89A3,3,0,0,0,53.52,5V7.63l1.33-.47a69.06,69.06,0,0,1,11.4-2.91l3.85-.63-3.68-1.3A4.25,4.25,0,0,0,65,2.07Z"/><path class="cls-3" d="M57.4,56.71l.7-.82a25.65,25.65,0,0,1,9.74-7.14l.69-.29v5.85A2.24,2.24,0,0,1,67.8,56a2.43,2.43,0,0,1-1.74.67Z"/><path class="cls-4" d="M68,49.21v5.1a1.8,1.8,0,0,1-.57,1.37,2,2,0,0,1-1.4.53H58.48a25,25,0,0,1,9.55-7m1-1.5-1.38.58a26.28,26.28,0,0,0-9.94,7.27l-1.38,1.65h9.73a3,3,0,0,0,2.08-.8,2.76,2.76,0,0,0,.89-2.1v-6.6Z"/><path class="cls-3" d="M88.45,56.71a3.26,3.26,0,0,1-3-1.69l-5.32-8.1,1.1.15a25.49,25.49,0,0,1,15.85,8.82l.69.82Z"/><path class="cls-4" d="M81.15,47.57a25,25,0,0,1,15.54,8.64H88.45a2.79,2.79,0,0,1-2.58-1.44l-4.72-7.2m-2.06-1.31,1.22,1.86L85,55.29a3.77,3.77,0,0,0,3.43,1.92H98.84l-1.39-1.65a26,26,0,0,0-16.16-9l-2.2-.32Z"/><path class="cls-3" d="M54,10.13l.32-.12A65.76,65.76,0,0,1,69,6.38l.31,0L80.43,23.89l-1,0c-.63,0-1.26-.05-1.9-.05a48.53,48.53,0,0,0-22.83,5.71l-.73.39Z"/><path class="cls-4" d="M69.07,6.88,79.5,23.36c-.64,0-1.27-.05-1.92-.05a48.8,48.8,0,0,0-23.06,5.76V10.48a64.83,64.83,0,0,1,14.55-3.6m.51-1.08-.64.09A66,66,0,0,0,54.17,9.54l-.65.24v21L55,30a48,48,0,0,1,22.59-5.65c.64,0,1.3,0,1.88.05l1.9.07-1-1.61L69.92,6.34l-.34-.54Z"/><path class="cls-3" d="M144.55,53.73a69.52,69.52,0,0,0-18.46-31.17l-1.79-1.75,2.32.93a46.87,46.87,0,0,0,7.18,1.94,49.73,49.73,0,0,1,11.45,3.26,14.91,14.91,0,0,1,6.44,5.2,14.46,14.46,0,0,1,2.09,8,14.73,14.73,0,0,1-3.06,9.27A18.08,18.08,0,0,1,145.28,54l-.56.31Z"/><path class="cls-4" d="M126.44,22.2a45.67,45.67,0,0,0,7.26,2,48.72,48.72,0,0,1,11.35,3.23,14.33,14.33,0,0,1,6.22,5,13.94,13.94,0,0,1,2,7.78,14.11,14.11,0,0,1-3,9A17.07,17.07,0,0,1,145,53.59,70,70,0,0,0,126.44,22.2m-4.28-2.78,3.58,3.5a68.94,68.94,0,0,1,18.33,30.94l.34,1.23,1.11-.62a18.2,18.2,0,0,0,5.59-4.71,15.16,15.16,0,0,0,3.17-9.57,15,15,0,0,0-2.17-8.33,15.41,15.41,0,0,0-6.65-5.37,49.51,49.51,0,0,0-11.59-3.3,45.2,45.2,0,0,1-7.06-1.92l-4.65-1.85Z"/><path class="cls-3" d="M119.14,55.93c-.66-.22-1.23-.42-1.73-.63a18.71,18.71,0,0,1-8-5.77,13.6,13.6,0,0,1-2.91-7.88,2,2,0,0,1,.65-1.52,2.16,2.16,0,0,1,1.51-.59h.46l.15.14a45.36,45.36,0,0,1,10.51,15.59l.4,1Z"/><path class="cls-4" d="M108.9,40a45.33,45.33,0,0,1,10.4,15.41c-.58-.18-1.15-.38-1.7-.61a18.21,18.21,0,0,1-7.82-5.62A13.07,13.07,0,0,1,107,41.63a1.51,1.51,0,0,1,.5-1.14,1.68,1.68,0,0,1,1.17-.45h.26m.41-1h-.67a2.69,2.69,0,0,0-1.85.72,2.5,2.5,0,0,0-.82,1.87,14.18,14.18,0,0,0,3,8.2,19.33,19.33,0,0,0,8.23,5.94c.52.21,1.08.41,1.77.64l2,.66-.81-2A45.81,45.81,0,0,0,109.6,39.32l-.29-.28Z"/><path class="cls-3" d="M122.71,19.47A70.05,70.05,0,0,0,110.39,11l-.48-.25.4-.61.24-.37a17.69,17.69,0,0,1,7.65-5.9,29,29,0,0,1,11.4-2.09,27.47,27.47,0,0,1,11.79,2.36,20.6,20.6,0,0,1,7.7,5.92A12.84,12.84,0,0,1,152,17.17a2.17,2.17,0,0,1-.59,1.53,1.94,1.94,0,0,1-1.5.66H139.24a3.42,3.42,0,0,1-3-1.59l0-.07,0-.07a4.23,4.23,0,0,0-2.13-2.4,8.75,8.75,0,0,0-4.45-1,8.64,8.64,0,0,0-4.67,1.05,3.25,3.25,0,0,0-1.51,2.93,3.11,3.11,0,0,0,.1.79l.37,1.52Z"/><path class="cls-4" d="M129.6,2.31a26.87,26.87,0,0,1,11.57,2.31,19.92,19.92,0,0,1,7.52,5.77,12.22,12.22,0,0,1,2.77,6.8,1.71,1.71,0,0,1-.45,1.18,1.5,1.5,0,0,1-1.14.49H139.24a2.91,2.91,0,0,1-2.58-1.37,4.69,4.69,0,0,0-2.36-2.69,9.16,9.16,0,0,0-4.7-1.1,9,9,0,0,0-4.94,1.14,3.73,3.73,0,0,0-1.74,3.34,3.84,3.84,0,0,0,.11.91,70.16,70.16,0,0,0-12.4-8.5c.11-.16.21-.33.33-.5a17.07,17.07,0,0,1,7.44-5.73,28.37,28.37,0,0,1,11.2-2.05m0-1A29.59,29.59,0,0,0,118,3.44a18.08,18.08,0,0,0-7.87,6.07c-.09.13-.17.26-.25.39l-.1.15-.59.91,1,.52a68.75,68.75,0,0,1,12.22,8.37l2.38,2-.76-3a2.61,2.61,0,0,1-.08-.67,2.75,2.75,0,0,1,1.29-2.51,8.19,8.19,0,0,1,4.39-1,8.31,8.31,0,0,1,4.2,1,3.79,3.79,0,0,1,1.9,2.11l0,.15.08.13a4,4,0,0,0,3.42,1.81h10.63a2.46,2.46,0,0,0,1.87-.82,2.69,2.69,0,0,0,.72-1.85,13.28,13.28,0,0,0-3-7.4,21,21,0,0,0-7.89-6.07,27.93,27.93,0,0,0-12-2.41Z"/><path class="cls-3" d="M132.59,36.58c-1.56-.44-3.59-.93-6.06-1.44-6.17-1.23-10.87-3.12-14-5.65s-4.74-6.27-4.74-11a15.56,15.56,0,0,1,.62-4.38l.17-.59.55.3a67.18,67.18,0,0,1,24,22l.74,1.13Z"/><path class="cls-4" d="M108.94,14.25A66.42,66.42,0,0,1,132.72,36.1q-2.34-.68-6.08-1.45-9.19-1.83-13.74-5.54t-4.56-10.63a14.61,14.61,0,0,1,.6-4.23m-.61-1.47L108,14a16.13,16.13,0,0,0-.64,4.52c0,4.9,1.66,8.74,4.92,11.4s7.92,4.51,14.18,5.75c2.44.51,4.47,1,6,1.43l2.59.73-1.48-2.24a67.52,67.52,0,0,0-24.15-22.18l-1.08-.59Z"/><path class="cls-3" d="M130.13,57.47A42.79,42.79,0,0,1,123.9,57l-.3-.05-.1-.29a48.23,48.23,0,0,0-9.44-16.32l-.72-.83h5.4a3.68,3.68,0,0,1,1.72.36,5.44,5.44,0,0,1,1.39,1.17l0,0,0,.05a7.27,7.27,0,0,0,2.88,2.8,10.93,10.93,0,0,0,5.34,1.11,12.45,12.45,0,0,0,6.05-1.19,5.1,5.1,0,0,0,.64-.43l.49-.38.27.56a66.16,66.16,0,0,1,4.23,11.47l.12.44-.43.16A34.61,34.61,0,0,1,130.13,57.47Z"/><path class="cls-4" d="M118.74,40a3.16,3.16,0,0,1,1.48.3,4.92,4.92,0,0,1,1.25,1.07,7.66,7.66,0,0,0,3.08,3,11.28,11.28,0,0,0,5.58,1.18,13,13,0,0,0,6.3-1.25,7.75,7.75,0,0,0,.7-.47,66.17,66.17,0,0,1,4.2,11.38A34.16,34.16,0,0,1,130.13,57a41,41,0,0,1-6.16-.44A48.86,48.86,0,0,0,114.44,40h4.3m0-1h-6.51l1.46,1.66A47.66,47.66,0,0,1,123,56.85l.19.58.6.09a42.5,42.5,0,0,0,6.31.45,35,35,0,0,0,11.53-1.79l.88-.31L142.3,55A66.91,66.91,0,0,0,138,43.42l-.54-1.12-1,.77a4.53,4.53,0,0,1-.58.39,12.06,12.06,0,0,1-5.8,1.12,10.37,10.37,0,0,1-5.09-1,6.69,6.69,0,0,1-2.69-2.6l0-.11-.08-.08a5.79,5.79,0,0,0-1.53-1.28,4.11,4.11,0,0,0-2-.42Z"/><path class="cls-3" d="M15.27,54.31V50.59c-.64,1.83-1.21,3.7-1.69,5.6a2,2,0,0,0,1.12-.51A1.8,1.8,0,0,0,15.27,54.31Z"/><path class="cls-3" d="M108.94,14.25a13.8,13.8,0,0,1,1.69-3.66,69.49,69.49,0,0,0-11.7-4.95V9.87A65.68,65.68,0,0,1,108.94,14.25Z"/><path class="cls-3" d="M125.19,21.63a11.63,11.63,0,0,0,1.25.57q-1.65-1.61-3.41-3.11A4,4,0,0,0,125.19,21.63Z"/><path class="cls-3" d="M138.63,40.87a3.38,3.38,0,0,0-1.14-2.62,10.11,10.11,0,0,0-3.64-1.82c-.34-.11-.72-.22-1.13-.33a67.2,67.2,0,0,1,4.41,7.76A3.66,3.66,0,0,0,138.63,40.87Z"/><path class="cls-3" d="M67.58,4.51l1.49,2.37A63.95,63.95,0,0,1,85.49,6.8V5A2,2,0,0,1,86,3.64a1.8,1.8,0,0,1,1.37-.57h.48a69.62,69.62,0,0,0-21.78.2A2.72,2.72,0,0,1,67.58,4.51Z"/><path class="cls-3" d="M16.76,37.69c-.52.9-1,1.81-1.49,2.74V50.59a65.63,65.63,0,0,1,6.16-12.9Z"/><path class="cls-3" d="M30.36,20.65a68.73,68.73,0,0,0-5.64,5.81,6.35,6.35,0,0,0,4-1.57A5.87,5.87,0,0,0,30.36,20.65Z"/><path class="cls-3" d="M54.52,10.48V6.22a69.71,69.71,0,0,0-11.65,5.31,14.79,14.79,0,0,1,1.57,3.74A66,66,0,0,1,54.52,10.48Z"/><path class="cls-3" d="M68,27.59v.75l.43-.1Z"/><path class="cls-3" d="M54.52,33.69V29.07A49.32,49.32,0,0,0,39.38,41.64l2.11,3.82A45.52,45.52,0,0,1,54.52,33.69Z"/><path class="cls-3" d="M85.49,28V24a51.27,51.27,0,0,0-6-.59l2.65,4.18C83.28,27.65,84.39,27.82,85.49,28Z"/><path class="cls-3" d="M108.9,40h5.54A49.28,49.28,0,0,0,98.93,28.19V32.7A45,45,0,0,1,108.9,40Z"/><path class="cls-3" d="M68,44.93v4.28a24.87,24.87,0,0,1,13.12-1.64l-2.79-4.24-.78,0A28.8,28.8,0,0,0,68,44.93Z"/></svg>