<svg id="Capa_1" data-name="Capa 1" xmlns="http://www.w3.org/2000/svg" viewBox="0 0 198.58 60.57"><defs><style>.cls-1{fill:#ffc800;}.cls-2{fill:none;}.cls-3{fill:#1d262d;}</style></defs><path class="cls-1" d="M.61,60A1.92,1.92,0,0,1,0,58.55V6.1A2.09,2.09,0,0,1,.57,4.61,1.87,1.87,0,0,1,2,4H24.24Q34.91,4,40.93,8.85t6,13.66a17,17,0,0,1-2.63,9.61,17.35,17.35,0,0,1-7.23,6.14L48,58a2,2,0,0,1,.24.89A1.69,1.69,0,0,1,47.76,60a1.6,1.6,0,0,1-1.21.53H35.15a3.38,3.38,0,0,1-3.31-2.19L23,40.85H15.19v17.7a1.91,1.91,0,0,1-.6,1.45,2.13,2.13,0,0,1-1.5.57H2A1.94,1.94,0,0,1,.61,60ZM24.16,29a7.35,7.35,0,0,0,5.29-1.74,6.31,6.31,0,0,0,1.82-4.81,6.71,6.71,0,0,0-1.82-4.92,7.06,7.06,0,0,0-5.29-1.86h-9V29Z"/><path class="cls-1" d="M73.5,60a1.92,1.92,0,0,1-.61-1.41V6.1a2.09,2.09,0,0,1,.57-1.49A1.87,1.87,0,0,1,74.91,4H84a3,3,0,0,1,2.75,1.54l19.07,30.14V6.1a2.09,2.09,0,0,1,.57-1.49A1.87,1.87,0,0,1,107.88,4h10.27a1.88,1.88,0,0,1,1.45.61,2.09,2.09,0,0,1,.57,1.49V58.46a2.09,2.09,0,0,1-.57,1.5,1.92,1.92,0,0,1-1.45.61H109A3,3,0,0,1,106.27,59l-19-28.93V58.55A1.92,1.92,0,0,1,86.67,60a2.09,2.09,0,0,1-1.49.57H74.91A1.94,1.94,0,0,1,73.5,60Z"/><path class="cls-1" d="M155.6,58.3a19.47,19.47,0,0,1-8.32-6,14,14,0,0,1-3-8.09,1.57,1.57,0,0,1,.52-1.21,1.82,1.82,0,0,1,1.26-.48h10.75a3.39,3.39,0,0,1,1.57.32A5.09,5.09,0,0,1,159.72,44,8.14,8.14,0,0,0,163,47.19a12,12,0,0,0,5.94,1.26,13.68,13.68,0,0,0,6.7-1.34A4.07,4.07,0,0,0,178,43.44a3.6,3.6,0,0,0-1.21-2.79,10.7,10.7,0,0,0-3.88-1.94q-2.67-.85-7.68-1.9-9.78-1.94-14.63-5.9T145.74,19.6a15,15,0,0,1,2.79-8.93,18.13,18.13,0,0,1,7.92-6.1,30.18,30.18,0,0,1,11.92-2.19,28.59,28.59,0,0,1,12.32,2.47,21,21,0,0,1,8,6.14,13,13,0,0,1,2.95,7.23,1.8,1.8,0,0,1-.48,1.26A1.57,1.57,0,0,1,190,20H178.63a3.09,3.09,0,0,1-2.74-1.45,5,5,0,0,0-2.51-2.87,9.88,9.88,0,0,0-5-1.17,9.58,9.58,0,0,0-5.25,1.21,4,4,0,0,0-1.86,3.55A4.08,4.08,0,0,0,163.68,23q2.43,1.34,9.06,2.71a51.7,51.7,0,0,1,12.08,3.43,15.22,15.22,0,0,1,6.62,5.34,14.81,14.81,0,0,1,2.14,8.28,15,15,0,0,1-3.15,9.53,19.71,19.71,0,0,1-8.72,6.19,35.65,35.65,0,0,1-12.77,2.14A35,35,0,0,1,155.6,58.3Z"/><path class="cls-2" d="M20.19,36.85v5.28c1.24-1.8,2.54-3.57,3.9-5.28Z"/><path class="cls-2" d="M101.79,50.4a48.42,48.42,0,0,1,6.75.48l-14.47-22c-.6.06-1.2.14-1.79.23V51.35A48,48,0,0,1,101.79,50.4Z"/><path class="cls-2" d="M110.86,29c-.61-.08-1.22-.17-1.83-.23l1.83,2.9Z"/><path class="cls-2" d="M183,40.24a3.62,3.62,0,0,0-1.21-2.79,9.8,9.8,0,0,0-3.15-1.67c1.47,1.8,2.88,3.65,4.21,5.56A4,4,0,0,0,183,40.24Z"/><path class="cls-2" d="M34.45,23.23a6.31,6.31,0,0,0,1.82-4.81,6.71,6.71,0,0,0-1.82-4.92,7.06,7.06,0,0,0-5.29-1.86h-9V25h9A7.35,7.35,0,0,0,34.45,23.23Z"/><path class="cls-3" d="M39.67,56.54a75.15,75.15,0,0,1,8.79-10.77L42.09,34.26a17.35,17.35,0,0,0,7.23-6.14A16.93,16.93,0,0,0,52,18.53,94.5,94.5,0,0,0,29,38.84l7.88,15.54A3.35,3.35,0,0,0,39.67,56.54Z"/><path class="cls-3" d="M20.19,36.85h3.9a99.37,99.37,0,0,1,27.16-23.8,15.39,15.39,0,0,0-5.32-8.2Q39.92,0,29.24,0H7A1.87,1.87,0,0,0,5.57.61,2.09,2.09,0,0,0,5,2.1V54.55A1.92,1.92,0,0,0,5.61,56,1.94,1.94,0,0,0,7,56.57H12a99.22,99.22,0,0,1,8.24-14.44Zm0-25.21h9a7.06,7.06,0,0,1,5.29,1.86,6.71,6.71,0,0,1,1.82,4.92,6.31,6.31,0,0,1-1.82,4.81A7.35,7.35,0,0,1,29.16,25h-9Z"/><path class="cls-3" d="M19.59,56a1.91,1.91,0,0,0,.6-1.45v-3c-.94,1.63-1.82,3.3-2.66,5h.56A2.13,2.13,0,0,0,19.59,56Z"/><path class="cls-3" d="M52.76,56a1.69,1.69,0,0,0,.48-1.17A2,2,0,0,0,53,54l-2-3.59a69.93,69.93,0,0,0-5.2,6.18h5.74A1.6,1.6,0,0,0,52.76,56Z"/><path class="cls-3" d="M78.5,56a1.91,1.91,0,0,0,.36.29,47.6,47.6,0,0,1,13.42-4.9V29.07a69,69,0,0,0-14.39,3.55V54.55A1.92,1.92,0,0,0,78.5,56Z"/><path class="cls-3" d="M89,0H79.91a1.87,1.87,0,0,0-1.45.61,2.09,2.09,0,0,0-.57,1.49h0A100.24,100.24,0,0,1,89.07,0Z"/><path class="cls-3" d="M110.86,31.68,109,28.78a69.35,69.35,0,0,0-7.24-.38,70.35,70.35,0,0,0-7.72.44l14.47,22a47.62,47.62,0,0,1,15.9,5.22l.16-.14a2.09,2.09,0,0,0,.57-1.5v-22A68.85,68.85,0,0,0,110.86,29Z"/><path class="cls-3" d="M125.17,27.15v-20a93.64,93.64,0,0,0-14.31-2.5V24A73.88,73.88,0,0,1,125.17,27.15Z"/><path class="cls-3" d="M124.6.61A1.88,1.88,0,0,0,123.15,0h-8.66a98.85,98.85,0,0,1,10.67,2A2.09,2.09,0,0,0,124.6.61Z"/><path class="cls-3" d="M101.79,23.4c1.31,0,2.61,0,3.9.1l-12-19a94.51,94.51,0,0,0-15.8,2.73V27.32A74.71,74.71,0,0,1,101.79,23.4Z"/><path class="cls-3" d="M173.94,46.06A12,12,0,0,1,168,44.81a8.2,8.2,0,0,1-3.28-3.19,4.9,4.9,0,0,0-1.33-1.13,3.27,3.27,0,0,0-1.57-.33H151.07a1.78,1.78,0,0,0-1.26.49,1.58,1.58,0,0,0-.42.65A75.22,75.22,0,0,1,163.64,57a39.26,39.26,0,0,0,10.3,1.23,36.42,36.42,0,0,0,11.65-1.74,94.23,94.23,0,0,0-6.61-11A16.94,16.94,0,0,1,173.94,46.06Z"/><path class="cls-3" d="M178.63,36.58a9.79,9.79,0,0,1,3.15,1.68A3.62,3.62,0,0,1,183,41.05a4,4,0,0,1-.15,1.1,97.89,97.89,0,0,1,7.34,12.22,18,18,0,0,0,5.25-4.51,15,15,0,0,0,3.15-9.54A14.81,14.81,0,0,0,196.44,32a15.21,15.21,0,0,0-6.62-5.33,51.65,51.65,0,0,0-12.08-3.44c-4.42-.91-7.44-1.82-9.06-2.7a4.09,4.09,0,0,1-2.42-3.68,4,4,0,0,1,1.86-3.56,9.66,9.66,0,0,1,5.25-1.21,9.88,9.88,0,0,1,5,1.17,5,5,0,0,1,2.51,2.87,3.1,3.1,0,0,0,2.74,1.46H195a1.58,1.58,0,0,0,1.21-.53,1.8,1.8,0,0,0,.48-1.25,13,13,0,0,0-2.95-7.23,21.08,21.08,0,0,0-8-6.15A28.6,28.6,0,0,0,173.37,0a30.36,30.36,0,0,0-11.92,2.18,18.2,18.2,0,0,0-7.92,6.1,14.73,14.73,0,0,0-2.29,4.94A99.65,99.65,0,0,1,178.63,36.58Z"/><path class="cls-3" d="M155.59,28.53q4.8,3.9,14.4,5.84a94.57,94.57,0,0,0-19.18-15.54A13.33,13.33,0,0,0,155.59,28.53Z"/><path class="cls-1" d="M92.28,26.1v3c.59-.09,1.19-.17,1.79-.23Z"/><path class="cls-1" d="M110.86,29V24c-1.71-.21-3.43-.38-5.17-.47L109,28.78C109.64,28.84,110.25,28.93,110.86,29Z"/></svg>